<svg width="584" height="302" viewBox="0 0 584 302" fill="none" xmlns="http://www.w3.org/2000/svg">
<mask id="path-1-inside-1_347_7061" fill="white">
<path d="M291.199 0.0593313C314.838 -0.417965 337.906 1.96435 359.494 7.93628C373.101 11.7005 386.335 16.6231 399.121 22.5027C393.747 30.9153 387.534 42.1721 381.463 54.8142C367.88 83.1002 360.146 107.603 364.187 109.544C368.228 111.484 382.514 90.1272 396.097 61.8416C402.154 49.2264 407.045 37.3621 410.251 27.9177C446.563 46.5516 478.927 72.7405 505.551 101.555C504.039 104.505 502.518 107.562 501.009 110.706C487.427 138.991 479.692 163.493 483.731 165.435C487.772 167.376 502.059 146.019 515.642 117.733C516.138 116.699 516.627 115.668 517.107 114.644C565.19 171.668 590.804 235.759 580.972 271.301C563.027 336.166 433.815 281.374 294.513 242.838C155.21 204.302 -16.6473 210.007 1.29688 145.141C11.2746 109.074 77.8311 58.7846 158.909 27.8621C157.538 30.5547 156.161 33.3343 154.792 36.1843C141.209 64.4701 133.475 88.9735 137.516 90.9138C141.557 92.8526 155.844 71.4957 169.426 43.2107C173.262 35.2218 176.631 27.5343 179.4 20.572C211.021 10.1318 244.233 2.89285 276.73 0.698003C272.067 8.43782 266.944 17.9553 261.918 28.4216C248.335 56.7075 240.6 81.2108 244.641 83.1511C248.682 85.0909 262.968 63.7336 276.551 35.448C282.926 22.171 288.014 9.72735 291.199 0.0593313Z"/>
</mask>
<path d="M291.199 0.0593313L291.139 -2.94006L289.015 -2.89717L288.35 -0.879544L291.199 0.0593313ZM359.494 7.93628L360.294 5.04488V5.04488L359.494 7.93628ZM399.121 22.5027L401.649 24.1178L403.503 21.2158L400.374 19.7771L399.121 22.5027ZM381.463 54.8142L378.759 53.5156V53.5156L381.463 54.8142ZM364.187 109.544L362.888 112.248L362.888 112.248L364.187 109.544ZM396.097 61.8416L398.801 63.1402V63.1402L396.097 61.8416ZM410.251 27.9177L411.621 25.2486L408.528 23.6614L407.41 26.9535L410.251 27.9177ZM505.551 101.555L508.221 102.924L509.176 101.059L507.754 99.5195L505.551 101.555ZM501.009 110.706L498.304 109.407V109.407L501.009 110.706ZM483.731 165.435L482.432 168.139L482.433 168.14L483.731 165.435ZM515.642 117.733L518.346 119.032V119.032L515.642 117.733ZM517.107 114.644L519.401 112.71L516.383 109.131L514.392 113.369L517.107 114.644ZM580.972 271.301L583.863 272.1V272.1L580.972 271.301ZM294.513 242.838L295.313 239.946V239.946L294.513 242.838ZM1.29688 145.141L-1.59452 144.341L-1.59453 144.342L1.29688 145.141ZM158.909 27.8621L161.582 29.2238L165.118 22.2833L157.84 25.059L158.909 27.8621ZM154.792 36.1843L152.088 34.8857V34.8857L154.792 36.1843ZM137.516 90.9138L136.217 93.6182L136.218 93.6187L137.516 90.9138ZM169.426 43.2107L172.13 44.5093V44.5093L169.426 43.2107ZM179.4 20.572L178.46 17.7233L177.13 18.1622L176.613 19.4631L179.4 20.572ZM276.73 0.698003L279.3 2.24637L282.27 -2.683L276.528 -2.29518L276.73 0.698003ZM261.918 28.4216L259.214 27.123V27.123L261.918 28.4216ZM244.641 83.1511L243.342 85.8555L243.342 85.8557L244.641 83.1511ZM276.551 35.448L279.255 36.7466V36.7466L276.551 35.448ZM291.199 0.0593313L291.26 3.05872C314.663 2.58618 337.435 4.94665 358.694 10.8277L359.494 7.93628L360.294 5.04488C338.377 -1.01794 315.013 -3.42211 291.139 -2.94006L291.199 0.0593313ZM359.494 7.93628L358.694 10.8277C372.136 14.546 385.218 19.4114 397.868 25.2283L399.121 22.5027L400.374 19.7771C387.452 13.8348 374.067 8.85501 360.294 5.04488L359.494 7.93628ZM399.121 22.5027L396.593 20.8876C391.14 29.4239 384.869 40.7907 378.759 53.5156L381.463 54.8142L384.167 56.1128C390.198 43.5536 396.354 32.4067 401.649 24.1178L399.121 22.5027ZM381.463 54.8142L378.759 53.5156C371.926 67.7454 366.536 81.0785 363.355 91.1555C361.771 96.1721 360.696 100.504 360.293 103.786C360.095 105.407 360.035 106.958 360.251 108.278C360.445 109.467 361.016 111.349 362.888 112.248L364.187 109.544L365.485 106.839C366.347 107.253 366.276 107.945 366.172 107.312C366.09 106.81 366.078 105.908 366.249 104.516C366.585 101.774 367.534 97.849 369.077 92.9616C372.149 83.2304 377.418 70.169 384.167 56.1128L381.463 54.8142ZM364.187 109.544L362.888 112.248C364.76 113.147 366.586 112.416 367.635 111.824C368.8 111.167 369.973 110.15 371.114 108.982C373.424 106.616 376.132 103.068 379.057 98.6953C384.932 89.9123 391.968 77.3698 398.801 63.1402L396.097 61.8416L393.392 60.5429C386.643 74.5989 379.744 86.8775 374.07 95.3592C371.22 99.619 368.75 102.814 366.821 104.791C365.841 105.794 365.13 106.348 364.687 106.598C364.128 106.914 364.623 106.425 365.485 106.839L364.187 109.544ZM396.097 61.8416L398.801 63.1402C404.899 50.4421 409.839 38.4646 413.092 28.882L410.251 27.9177L407.41 26.9535C404.251 36.2597 399.41 48.0107 393.392 60.5429L396.097 61.8416ZM410.251 27.9177L408.881 30.5868C444.831 49.035 476.921 74.9909 503.347 103.591L505.551 101.555L507.754 99.5195C480.932 70.4901 448.294 44.0682 411.621 25.2486L410.251 27.9177ZM505.551 101.555L502.881 100.187C501.358 103.159 499.826 106.239 498.304 109.407L501.009 110.706L503.713 112.004C505.211 108.885 506.72 105.852 508.221 102.924L505.551 101.555ZM501.009 110.706L498.304 109.407C491.472 123.636 486.082 136.969 482.901 147.046C481.317 152.063 480.241 156.395 479.839 159.677C479.64 161.298 479.581 162.849 479.796 164.169C479.99 165.358 480.56 167.24 482.432 168.139L483.731 165.435L485.031 162.731C485.893 163.145 485.821 163.837 485.718 163.203C485.636 162.701 485.624 161.799 485.794 160.407C486.131 157.665 487.08 153.74 488.623 148.852C491.695 139.121 496.964 126.06 503.713 112.004L501.009 110.706ZM483.731 165.435L482.433 168.14C484.305 169.039 486.131 168.307 487.18 167.716C488.345 167.059 489.518 166.042 490.659 164.874C492.969 162.508 495.677 158.96 498.602 154.587C504.477 145.804 511.513 133.261 518.346 119.032L515.642 117.733L512.937 116.435C506.188 130.491 499.289 142.769 493.615 151.251C490.765 155.511 488.295 158.706 486.365 160.682C485.386 161.686 484.675 162.24 484.232 162.49C483.673 162.805 484.168 162.317 485.03 162.731L483.731 165.435ZM515.642 117.733L518.346 119.032C518.847 117.988 519.339 116.949 519.823 115.92L517.107 114.644L514.392 113.369C513.914 114.387 513.43 115.409 512.937 116.435L515.642 117.733ZM517.107 114.644L514.814 116.578C538.68 144.882 556.927 174.893 567.977 202.155C579.075 229.535 582.732 253.684 578.08 270.501L580.972 271.301L583.863 272.1C589.043 253.375 584.809 227.708 573.538 199.901C562.219 171.976 543.617 141.43 519.401 112.71L517.107 114.644ZM580.972 271.301L578.08 270.501C575.984 278.08 572.31 283.775 567.296 287.983C562.255 292.214 555.694 295.076 547.64 296.696C531.437 299.956 509.74 298.09 483.84 292.903C432.001 282.52 365.279 259.301 295.313 239.946L294.513 242.838L293.713 245.729C363.049 264.91 430.583 288.355 482.662 298.786C508.721 304.006 531.398 306.084 548.823 302.578C557.582 300.816 565.149 297.618 571.153 292.58C577.183 287.519 581.474 280.738 583.863 272.1L580.972 271.301ZM294.513 242.838L295.313 239.946C225.565 220.652 147.221 212.334 89.5193 200.92C60.4503 195.171 36.7487 188.671 21.4629 179.761C13.8522 175.325 8.57733 170.431 5.68 164.975C2.8299 159.609 2.12338 153.406 4.18828 145.941L1.29688 145.141L-1.59453 144.342C-4.01567 153.094 -3.27694 160.902 0.380926 167.789C3.99156 174.588 10.2873 180.192 18.4415 184.945C34.6854 194.413 59.2899 201.057 88.3551 206.806C146.921 218.391 224.158 226.488 293.713 245.729L294.513 242.838ZM1.29688 145.141L4.18828 145.941C6.5165 137.525 12.237 128.013 20.9976 117.915C29.7315 107.848 41.3486 97.3568 55.2366 86.9754C83.012 66.2129 119.671 46.0381 159.978 30.6651L158.909 27.8621L157.84 25.059C117.07 40.6086 79.9109 61.0399 51.6442 82.1696C37.511 92.7344 25.5509 103.511 16.4655 113.983C7.40681 124.425 1.06612 134.724 -1.59452 144.341L1.29688 145.141ZM158.909 27.8621L156.236 26.5003C154.854 29.2134 153.467 32.014 152.088 34.8857L154.792 36.1843L157.496 37.4829C158.855 34.6545 160.221 31.896 161.582 29.2238L158.909 27.8621ZM154.792 36.1843L152.088 34.8857C145.255 49.1154 139.865 62.4486 136.684 72.5255C135.101 77.5422 134.025 81.8745 133.623 85.1565C133.424 86.7769 133.364 88.3286 133.58 89.6485C133.774 90.837 134.345 92.7192 136.217 93.6182L137.516 90.9138L138.814 88.2095C139.676 88.6233 139.605 89.3153 139.502 88.6819C139.42 88.18 139.407 87.278 139.578 85.8863C139.914 83.1443 140.863 79.2191 142.406 74.3317C145.478 64.6005 150.747 51.539 157.496 37.4829L154.792 36.1843ZM137.516 90.9138L136.218 93.6187C138.09 94.5167 139.916 93.7853 140.964 93.1935C142.129 92.5362 143.303 91.5195 144.443 90.3513C146.753 87.9852 149.461 84.4367 152.386 80.0642C158.262 71.281 165.297 58.7386 172.13 44.5093L169.426 43.2107L166.721 41.9121C159.972 55.9678 153.073 68.2463 147.399 76.7281C144.55 80.9881 142.08 84.1831 140.15 86.16C139.17 87.1634 138.459 87.7181 138.016 87.9681C137.456 88.2837 137.951 87.7956 138.813 88.209L137.516 90.9138ZM169.426 43.2107L172.13 44.5093C175.994 36.4632 179.391 28.7123 182.188 21.681L179.4 20.572L176.613 19.4631C173.871 26.3563 170.53 33.9805 166.721 41.9121L169.426 43.2107ZM179.4 20.572L180.341 23.4208C211.769 13.0441 244.731 5.86605 276.933 3.69118L276.73 0.698003L276.528 -2.29518C243.735 -0.0803568 210.273 7.21946 178.46 17.7233L179.4 20.572ZM276.73 0.698003L274.161 -0.850364C269.441 6.98211 264.274 16.5845 259.214 27.123L261.918 28.4216L264.622 29.7202C269.613 19.3261 274.692 9.89352 279.3 2.24637L276.73 0.698003ZM261.918 28.4216L259.214 27.123C252.381 41.3528 246.991 54.6859 243.81 64.7628C242.226 69.7795 241.15 74.1118 240.748 77.3938C240.549 79.0141 240.49 80.5658 240.705 81.8858C240.899 83.0743 241.47 84.9565 243.342 85.8555L244.641 83.1511L245.939 80.4468C246.801 80.8606 246.73 81.5527 246.627 80.9193C246.545 80.4174 246.533 79.5154 246.703 78.1237C247.039 75.3817 247.988 71.4565 249.531 66.5691C252.603 56.8379 257.873 43.7764 264.622 29.7202L261.918 28.4216ZM244.641 83.1511L243.342 85.8557C245.214 86.7543 247.04 86.023 248.089 85.4313C249.254 84.7741 250.428 83.7574 251.568 82.5892C253.878 80.2232 256.586 76.6747 259.511 72.3021C265.387 63.5189 272.422 50.9762 279.255 36.7466L276.551 35.448L273.846 34.1494C267.097 48.2054 260.198 60.4842 254.524 68.9661C251.674 73.226 249.205 76.421 247.275 78.3979C246.295 79.4011 245.584 79.9557 245.141 80.2057C244.582 80.5211 245.077 80.0329 245.939 80.4466L244.641 83.1511ZM276.551 35.448L279.255 36.7466C285.671 23.385 290.813 10.8188 294.049 0.998207L291.199 0.0593313L288.35 -0.879544C285.214 8.63589 280.181 20.957 273.846 34.1494L276.551 35.448Z" fill="#B77D12" mask="url(#path-1-inside-1_347_7061)"/>
</svg>
